<svg xmlns="http://www.w3.org/2000/svg" xmlns:xlink="http://www.w3.org/1999/xlink" width="500" zoomAndPan="magnify" viewBox="0 0 375 374.999991" height="500" preserveAspectRatio="xMidYMid meet" version="1.0"><defs><g/><clipPath id="b7fdff9b2b"><path d="M 161.542969 165.609375 L 264.160156 165.609375 L 264.160156 205.410156 L 161.542969 205.410156 Z M 161.542969 165.609375 " clip-rule="nonzero"/></clipPath><clipPath id="5407c34210"><path d="M 193.300781 165.609375 L 258.445312 165.609375 C 260.535156 165.609375 262.457031 166.75 263.453125 168.585938 C 264.445312 170.421875 264.355469 172.65625 263.21875 174.40625 L 248.757812 196.613281 C 245.179688 202.101562 239.074219 205.410156 232.527344 205.410156 L 167.378906 205.410156 C 165.292969 205.410156 163.371094 204.265625 162.375 202.429688 C 161.378906 200.59375 161.46875 198.363281 162.609375 196.613281 L 177.070312 174.40625 C 180.644531 168.917969 186.75 165.609375 193.300781 165.609375 Z M 193.300781 165.609375 " clip-rule="nonzero"/></clipPath></defs><g clip-path="url(#b7fdff9b2b)"><g clip-path="url(#5407c34210)"><path fill="#000000" d="M 156.878906 165.609375 L 268.980469 165.609375 L 268.980469 205.410156 L 156.878906 205.410156 Z M 156.878906 165.609375 " fill-opacity="1" fill-rule="nonzero"/></g></g><g fill="#000000" fill-opacity="1"><g transform="translate(109.03398, 202.012935)"><g><path d="M 9.140625 -5.484375 L 20.09375 -5.484375 L 20.09375 0 L 2.578125 0 L 2.578125 -25.796875 L 9.140625 -25.796875 Z M 9.140625 -5.484375 "/></g></g></g><g fill="#000000" fill-opacity="1"><g transform="translate(127.575402, 202.012935)"><g><path d="M 3.328125 -28 C 3.960938 -28.625 4.769531 -28.9375 5.75 -28.9375 C 6.726562 -28.9375 7.53125 -28.625 8.15625 -28 C 8.789062 -27.375 9.109375 -26.566406 9.109375 -25.578125 C 9.109375 -24.597656 8.789062 -23.785156 8.15625 -23.140625 C 7.53125 -22.503906 6.726562 -22.1875 5.75 -22.1875 C 4.769531 -22.1875 3.960938 -22.503906 3.328125 -23.140625 C 2.703125 -23.785156 2.390625 -24.597656 2.390625 -25.578125 C 2.390625 -26.566406 2.703125 -27.375 3.328125 -28 Z M 8.890625 0 L 2.546875 0 L 2.546875 -19.859375 L 8.890625 -19.859375 Z M 8.890625 0 "/></g></g></g><g fill="#000000" fill-opacity="1"><g transform="translate(136.938163, 202.012935)"><g><path d="M 15.546875 -20.15625 C 17.734375 -20.15625 19.488281 -19.460938 20.8125 -18.078125 C 22.144531 -16.691406 22.8125 -14.84375 22.8125 -12.53125 L 22.8125 0 L 16.46875 0 L 16.46875 -10.765625 C 16.46875 -11.921875 16.15625 -12.832031 15.53125 -13.5 C 14.90625 -14.175781 14.050781 -14.515625 12.96875 -14.515625 C 11.84375 -14.515625 10.914062 -14.144531 10.1875 -13.40625 C 9.46875 -12.675781 9.046875 -11.707031 8.921875 -10.5 L 8.921875 0 L 2.546875 0 L 2.546875 -19.859375 L 8.921875 -19.859375 L 8.921875 -16.625 C 10.316406 -18.9375 12.523438 -20.113281 15.546875 -20.15625 Z M 15.546875 -20.15625 "/></g></g></g><g fill="#ffffff" fill-opacity="1"><g transform="translate(167.655622, 202.015865)"><g><path d="M 11.234375 -7.671875 L 9.109375 -5.421875 L 9.109375 0 L 2.734375 0 L 2.734375 -27.34375 L 9.109375 -27.34375 L 9.109375 -12.90625 L 15.671875 -19.859375 L 22.890625 -19.859375 L 15.59375 -12.234375 L 23.109375 0 L 15.546875 0 Z M 11.234375 -7.671875 "/></g></g></g><g fill="#ffffff" fill-opacity="1"><g transform="translate(188.777385, 202.015865)"><g><path d="M 11.234375 -20.09375 C 14.679688 -20.09375 17.269531 -19.035156 19 -16.921875 C 20.726562 -14.804688 21.484375 -11.90625 21.265625 -8.21875 L 7.296875 -8.21875 C 7.617188 -7.039062 8.179688 -6.128906 8.984375 -5.484375 C 9.796875 -4.847656 10.796875 -4.53125 11.984375 -4.53125 C 13.796875 -4.53125 15.378906 -5.207031 16.734375 -6.5625 L 20.09375 -3.28125 C 17.945312 -0.945312 15.054688 0.21875 11.421875 0.21875 C 8.203125 0.21875 5.640625 -0.703125 3.734375 -2.546875 C 1.835938 -4.390625 0.890625 -6.832031 0.890625 -9.875 C 0.890625 -12.945312 1.835938 -15.414062 3.734375 -17.28125 C 5.640625 -19.15625 8.140625 -20.09375 11.234375 -20.09375 Z M 7.1875 -11.640625 L 15.15625 -11.640625 C 15.15625 -12.847656 14.800781 -13.820312 14.09375 -14.5625 C 13.394531 -15.300781 12.46875 -15.671875 11.3125 -15.671875 C 10.226562 -15.671875 9.316406 -15.304688 8.578125 -14.578125 C 7.847656 -13.847656 7.382812 -12.867188 7.1875 -11.640625 Z M 7.1875 -11.640625 "/></g></g></g><g fill="#ffffff" fill-opacity="1"><g transform="translate(208.867014, 202.015865)"><g><path d="M 22.5625 -27.34375 L 22.5625 0 L 16.1875 0 L 16.1875 -2.609375 C 14.726562 -0.691406 12.734375 0.265625 10.203125 0.265625 C 7.410156 0.265625 5.164062 -0.679688 3.46875 -2.578125 C 1.769531 -4.472656 0.921875 -6.957031 0.921875 -10.03125 C 0.921875 -13.070312 1.753906 -15.515625 3.421875 -17.359375 C 5.097656 -19.203125 7.3125 -20.125 10.0625 -20.125 C 12.6875 -20.125 14.726562 -19.164062 16.1875 -17.25 L 16.1875 -27.34375 Z M 8.546875 -6.125 C 9.359375 -5.164062 10.425781 -4.6875 11.75 -4.6875 C 13.082031 -4.6875 14.15625 -5.164062 14.96875 -6.125 C 15.78125 -7.082031 16.1875 -8.332031 16.1875 -9.875 C 16.1875 -11.394531 15.78125 -12.632812 14.96875 -13.59375 C 14.15625 -14.550781 13.082031 -15.03125 11.75 -15.03125 C 10.425781 -15.03125 9.359375 -14.554688 8.546875 -13.609375 C 7.734375 -12.671875 7.316406 -11.425781 7.296875 -9.875 C 7.316406 -8.332031 7.734375 -7.082031 8.546875 -6.125 Z M 8.546875 -6.125 "/></g></g></g></svg>